<?xml version="1.0" standalone="no"?><svg xmlns="http://www.w3.org/2000/svg" viewBox="0 0 1440 320"><path fill="#4d93eb" fill-opacity="1" d="M0,192L26.7,197.3C53.3,203,107,213,160,181.3C213.3,149,267,75,320,85.3C373.3,96,427,192,480,224C533.3,256,587,224,640,202.7C693.3,181,747,171,800,165.3C853.3,160,907,160,960,176C1013.3,192,1067,224,1120,197.3C1173.3,171,1227,85,1280,42.7C1333.3,0,1387,0,1413,0L1440,0L1440,320L1413.3,320C1386.7,320,1333,320,1280,320C1226.7,320,1173,320,1120,320C1066.7,320,1013,320,960,320C906.7,320,853,320,800,320C746.7,320,693,320,640,320C586.7,320,533,320,480,320C426.7,320,373,320,320,320C266.7,320,213,320,160,320C106.7,320,53,320,27,320L0,320Z"></path></svg>